<svg xmlns="http://www.w3.org/2000/svg" fill="currentColor">
  <symbol id="home" viewBox="0 0 16 16">
    <path d="M6.5 14.5v-3.505c0-.245.25-.495.5-.495h2c.25 0 .5.25.5.5v3.5a.5.5 0 0 0 .5.5h4a.5.5 0 0 0 .5-.5v-7a.5.5 0 0 0-.146-.354L13 5.793V2.5a.5.5 0 0 0-.5-.5h-1a.5.5 0 0 0-.5.5v1.293L8.354 1.146a.5.5 0 0 0-.708 0l-6 6A.5.5 0 0 0 1.5 7.5v7a.5.5 0 0 0 .5.5h4a.5.5 0 0 0 .5-.5"/>
  </symbol>

  <symbol id="post" viewBox="0 0 16 16">
    <path d="M4 3.5a.5.5 0 0 1 .5-.5h5a.5.5 0 0 1 0 1h-5a.5.5 0 0 1-.5-.5m0 2a.5.5 0 0 1 .5-.5h7a.5.5 0 0 1 .5.5v8a.5.5 0 0 1-.5.5h-7a.5.5 0 0 1-.5-.5z"/>
    <path d="M2 2a2 2 0 0 1 2-2h8a2 2 0 0 1 2 2v12a2 2 0 0 1-2 2H4a2 2 0 0 1-2-2zm10-1H4a1 1 0 0 0-1 1v12a1 1 0 0 0 1 1h8a1 1 0 0 0 1-1V2a1 1 0 0 0-1-1"/>
  </symbol>

  <symbol id="profile" viewBox="0 0 448 512">
  <path d="M224 256A128 128 0 1 0 224 0a128 128 0 1 0 0 256zm-45.7 48C79.8 304 0 383.8 0 482.3C0 498.7 13.3 512 29.7 512l388.6 0c16.4 0 29.7-13.3 29.7-29.7C448 383.8 368.2 304 269.7 304l-91.4 0z"/>
  </symbol>
  
  <symbol id="log-out" viewBox="0 0 512 512">
  <path d="M377.9 105.9L500.7 228.7c7.2 7.2 11.3 17.1 11.3 27.3s-4.1 20.1-11.3 27.3L377.9 406.1c-6.4 6.4-15 9.9-24 9.9c-18.7 0-33.9-15.2-33.9-33.9l0-62.1-128 0c-17.7 0-32-14.3-32-32l0-64c0-17.7 14.3-32 32-32l128 0 0-62.1c0-18.7 15.2-33.9 33.9-33.9c9 0 17.6 3.6 24 9.9zM160 96L96 96c-17.7 0-32 14.3-32 32l0 256c0 17.7 14.3 32 32 32l64 0c17.7 0 32 14.3 32 32s-14.3 32-32 32l-64 0c-53 0-96-43-96-96L0 128C0 75 43 32 96 32l64 0c17.7 0 32 14.3 32 32s-14.3 32-32 32z"/>
  </symbol>

  <symbol id="agreement" viewBox="0 0 384 512">
  <path d="M64 0C28.7 0 0 28.7 0 64L0 448c0 35.3 28.7 64 64 64l256 0c35.3 0 64-28.7 64-64l0-288-128 0c-17.7 0-32-14.3-32-32L224 0 64 0zM256 0l0 128 128 0L256 0zM80 64l64 0c8.8 0 16 7.2 16 16s-7.2 16-16 16L80 96c-8.8 0-16-7.2-16-16s7.2-16 16-16zm0 64l64 0c8.8 0 16 7.2 16 16s-7.2 16-16 16l-64 0c-8.8 0-16-7.2-16-16s7.2-16 16-16zm54.2 253.8c-6.1 20.3-24.8 34.2-46 34.2L80 416c-8.8 0-16-7.2-16-16s7.2-16 16-16l8.2 0c7.1 0 13.3-4.6 15.3-11.4l14.9-49.5c3.4-11.3 13.8-19.1 25.6-19.1s22.2 7.7 25.6 19.1l11.6 38.6c7.4-6.2 16.8-9.7 26.8-9.7c15.9 0 30.4 9 37.5 23.2l4.4 8.8 54.1 0c8.8 0 16 7.2 16 16s-7.2 16-16 16l-64 0c-6.1 0-11.6-3.4-14.3-8.8l-8.8-17.7c-1.7-3.4-5.1-5.5-8.8-5.5s-7.2 2.1-8.8 5.5l-8.8 17.7c-2.9 5.9-9.2 9.4-15.7 8.8s-12.1-5.1-13.9-11.3L144 349l-9.8 32.8z"/>
  </symbol>

  <symbol id="agreement" viewBox="0 0 384 512">
  <path d="M64 0C28.7 0 0 28.7 0 64L0 448c0 35.3 28.7 64 64 64l256 0c35.3 0 64-28.7 64-64l0-288-128 0c-17.7 0-32-14.3-32-32L224 0 64 0zM256 0l0 128 128 0L256 0zM80 64l64 0c8.8 0 16 7.2 16 16s-7.2 16-16 16L80 96c-8.8 0-16-7.2-16-16s7.2-16 16-16zm0 64l64 0c8.8 0 16 7.2 16 16s-7.2 16-16 16l-64 0c-8.8 0-16-7.2-16-16s7.2-16 16-16zm54.2 253.8c-6.1 20.3-24.8 34.2-46 34.2L80 416c-8.8 0-16-7.2-16-16s7.2-16 16-16l8.2 0c7.1 0 13.3-4.6 15.3-11.4l14.9-49.5c3.4-11.3 13.8-19.1 25.6-19.1s22.2 7.7 25.6 19.1l11.6 38.6c7.4-6.2 16.8-9.7 26.8-9.7c15.9 0 30.4 9 37.5 23.2l4.4 8.8 54.1 0c8.8 0 16 7.2 16 16s-7.2 16-16 16l-64 0c-6.1 0-11.6-3.4-14.3-8.8l-8.8-17.7c-1.7-3.4-5.1-5.5-8.8-5.5s-7.2 2.1-8.8 5.5l-8.8 17.7c-2.9 5.9-9.2 9.4-15.7 8.8s-12.1-5.1-13.9-11.3L144 349l-9.8 32.8z"/>
  </symbol>
  
  <symbol id="list" viewBox="0 0 16 16">
  <path d="M14.5 3a.5.5 0 0 1 .5.5v9a.5.5 0 0 1-.5.5h-13a.5.5 0 0 1-.5-.5v-9a.5.5 0 0 1 .5-.5zm-13-1A1.5 1.5 0 0 0 0 3.5v9A1.5 1.5 0 0 0 1.5 14h13a1.5 1.5 0 0 0 1.5-1.5v-9A1.5 1.5 0 0 0 14.5 2z"/>
  <path d="M5 8a.5.5 0 0 1 .5-.5h7a.5.5 0 0 1 0 1h-7A.5.5 0 0 1 5 8m0-2.5a.5.5 0 0 1 .5-.5h7a.5.5 0 0 1 0 1h-7a.5.5 0 0 1-.5-.5m0 5a.5.5 0 0 1 .5-.5h7a.5.5 0 0 1 0 1h-7a.5.5 0 0 1-.5-.5m-1-5a.5.5 0 1 1-1 0 .5.5 0 0 1 1 0M4 8a.5.5 0 1 1-1 0 .5.5 0 0 1 1 0m0 2.5a.5.5 0 1 1-1 0 .5.5 0 0 1 1 0"/>
</symbol>

<symbol id="files" viewBox="0 0 50 50">
  <path d="M28.90625 1.96875C28.863281 1.976563 28.820313 1.988281 28.78125 2L11.5 2C9.585938 2 8 3.558594 8 5.46875L8 43.90625C8 46.160156 9.867188 48 12.125 48L37.875 48C40.132813 48 42 46.160156 42 43.90625L42 15.1875C42.027344 15.054688 42.027344 14.914063 42 14.78125L42 14.5C42.007813 14.234375 41.90625 13.972656 41.71875 13.78125L30.21875 2.28125C30.027344 2.09375 29.765625 1.992188 29.5 2L29.1875 2C29.097656 1.976563 29 1.964844 28.90625 1.96875ZM11.5 4L28 4L28 12.34375C28 14.355469 29.644531 16 31.65625 16L40 16L40 43.90625C40 45.074219 39.054688 46 37.875 46L12.125 46C10.945313 46 10 45.074219 10 43.90625L10 5.46875C10 4.644531 10.660156 4 11.5 4ZM30 4.9375L39.0625 14L31.65625 14C30.722656 14 30 13.277344 30 12.34375ZM17 24L17 26L33 26L33 24ZM17 28L17 30L33 30L33 28ZM17 32L17 34L33 34L33 32ZM17 36L17 38L26 38L26 36Z"/>
</symbol>

<symbol id="users" viewBox="0 0 16 16">
  <path d="M15 14s1 0 1-1-1-4-5-4-5 3-5 4 1 1 1 1zm-7.978-1L7 12.996c.001-.264.167-1.03.76-1.72C8.312 10.629 9.282 10 11 10c1.717 0 2.687.63 3.24 1.276.593.69.758 1.457.76 1.72l-.008.002-.014.002zM11 7a2 2 0 1 0 0-4 2 2 0 0 0 0 4m3-2a3 3 0 1 1-6 0 3 3 0 0 1 6 0M6.936 9.28a6 6 0 0 0-1.23-.247A7 7 0 0 0 5 9c-4 0-5 3-5 4q0 1 1 1h4.216A2.24 2.24 0 0 1 5 13c0-1.01.377-2.042 1.09-2.904.243-.294.526-.569.846-.816M4.92 10A5.5 5.5 0 0 0 4 13H1c0-.26.164-1.03.76-1.724.545-.636 1.492-1.256 3.16-1.275ZM1.5 5.5a3 3 0 1 1 6 0 3 3 0 0 1-6 0m3-2a2 2 0 1 0 0 4 2 2 0 0 0 0-4"/>
</symbol>

</svg>
